<?xml version="1.0" encoding="utf-8"?>
<svg viewBox="86.756 263.425 32.05 37" xmlns="http://www.w3.org/2000/svg">
  <path d="M 101.306 300.425 C 97.206 300.092 93.756 298.408 90.956 295.375 C 88.156 292.342 86.756 288.742 86.756 284.575 C 86.756 282.008 87.347 279.592 88.531 277.325 C 89.714 275.058 91.372 273.208 93.506 271.775 L 95.656 273.925 C 93.789 275.025 92.339 276.533 91.306 278.45 C 90.272 280.367 89.756 282.408 89.756 284.575 C 89.756 287.908 90.856 290.792 93.056 293.225 C 95.256 295.658 98.006 297.058 101.306 297.425 L 101.306 300.425 Z M 104.306 300.425 L 104.306 297.425 C 107.639 297.025 110.389 295.617 112.556 293.2 C 114.722 290.783 115.806 287.908 115.806 284.575 C 115.806 280.942 114.547 277.867 112.031 275.35 C 109.514 272.833 106.439 271.575 102.806 271.575 L 101.806 271.575 L 104.806 274.575 L 102.656 276.725 L 96.006 270.075 L 102.656 263.425 L 104.806 265.575 L 101.806 268.575 L 102.806 268.575 C 107.272 268.575 111.056 270.133 114.156 273.25 C 117.256 276.367 118.806 280.142 118.806 284.575 C 118.806 288.742 117.414 292.342 114.631 295.375 C 111.847 298.408 108.406 300.092 104.306 300.425 Z" style="fill: rgb(255, 255, 255);" transform="matrix(1, 0, 0, 1, -1.4210854715202004e-14, -5.684341886080802e-14)"/>
</svg>