<?xml version="1.0" encoding="UTF-8" standalone="no"?>
<svg
   xmlns:dc="http://purl.org/dc/elements/1.1/"
   xmlns:cc="http://creativecommons.org/ns#"
   xmlns:rdf="http://www.w3.org/1999/02/22-rdf-syntax-ns#"
   xmlns:svg="http://www.w3.org/2000/svg"
   xmlns="http://www.w3.org/2000/svg"
   id="svg8"
   version="1.1"
   viewBox="0 0 104.24582 104.24583"
   height="104.24583mm"
   width="104.24583mm">
  <defs
     id="defs2" />
  <metadata
     id="metadata5">
    <rdf:RDF>
      <cc:Work
         rdf:about="">
        <dc:format>image/svg+xml</dc:format>
        <dc:type
           rdf:resource="http://purl.org/dc/dcmitype/StillImage" />
        <dc:title></dc:title>
      </cc:Work>
    </rdf:RDF>
  </metadata>
  <g
     transform="translate(-33.903152,-86.11898)"
     id="layer1">
    <path
       style="fill:#000000;stroke-width:0.26458332"
       d="M 135.99262,139.27377 H 78.842628 l 20.928541,-14.89604 c -7.77875,-6.1648 -16.774583,-9.26042 -26.961041,-9.26042 -5.106459,0 -8.598959,0.97896 -10.451042,2.91042 -1.878542,1.95791 -2.831042,5.47687 -2.831042,10.55687 0,14.07583 7.249584,29.10417 21.74875,45.085 L 64.793253,190.36481 C 45.610961,167.02856 36.006586,146.15293 36.006586,127.79085 c 0,-11.00667 3.307291,-19.76437 9.948333,-26.27312 6.641042,-6.508754 15.478125,-9.763129 26.458334,-9.763129 13.414375,0 28.045837,5.106458 43.894367,15.292919 l 12.27667,-20.928544 7.46125,53.128334"
       id="path817" />
  </g>
</svg>
