<?xml version="1.0" encoding="UTF-8" standalone="no"?>
<!-- Created with Inkscape (http://www.inkscape.org/) -->

<svg
   xmlns:dc="http://purl.org/dc/elements/1.1/"
   xmlns:cc="http://creativecommons.org/ns#"
   xmlns:rdf="http://www.w3.org/1999/02/22-rdf-syntax-ns#"
   xmlns:svg="http://www.w3.org/2000/svg"
   xmlns="http://www.w3.org/2000/svg"
   xmlns:sodipodi="http://sodipodi.sourceforge.net/DTD/sodipodi-0.dtd"
   xmlns:inkscape="http://www.inkscape.org/namespaces/inkscape"
   width="127.15134mm"
   height="128.65213mm"
   viewBox="0 0 127.15134 128.65213"
   version="1.1"
   id="svg8"
   inkscape:version="0.92.3 (2405546, 2018-03-11)"
   sodipodi:docname="energy_counter.svg">
  <defs
     id="defs2" />
  <sodipodi:namedview
     id="base"
     pagecolor="#ffffff"
     bordercolor="#666666"
     borderopacity="1.0"
     inkscape:pageopacity="0.0"
     inkscape:pageshadow="2"
     inkscape:zoom="1.979899"
     inkscape:cx="389.76759"
     inkscape:cy="239.37286"
     inkscape:document-units="mm"
     inkscape:current-layer="layer1"
     showgrid="false"
     inkscape:window-width="2560"
     inkscape:window-height="1377"
     inkscape:window-x="1912"
     inkscape:window-y="-8"
     inkscape:window-maximized="1" />
  <metadata
     id="metadata5">
    <rdf:RDF>
      <cc:Work
         rdf:about="">
        <dc:format>image/svg+xml</dc:format>
        <dc:type
           rdf:resource="http://purl.org/dc/dcmitype/StillImage" />
        <dc:title></dc:title>
      </cc:Work>
    </rdf:RDF>
  </metadata>
  <g
     inkscape:label="Ebene 1"
     inkscape:groupmode="layer"
     id="layer1"
     transform="translate(-27.138615,-84.507264)">
    <path
       d="m 89.589886,199.87373 c -0.556776,-0.6038 -0.701761,-1.73344 -1.166749,-2.46293 -0.55177,-0.86598 -1.228497,-1.64007 -1.81427,-2.48069 -0.76768,-1.10218 -1.644045,-2.12534 -2.42007,-3.22435 -1.327169,-1.87964 -2.834367,-3.51336 -4.422714,-5.16926 -3.897437,-4.06349 -7.96802,-7.82086 -12.593918,-11.02789 -7.166961,-4.96897 -14.763449,-9.3181 -22.909203,-12.41421 -0.56512,-0.21485 0,0 -3.674436,-1.8188 0.693625,-1.12816 4.971356,-7.26903 5.974138,-8.89853 1.674712,-2.72131 2.878801,-5.69658 4.126699,-8.6336 1.588764,-3.73941 3.011893,-7.56735 4.151106,-11.47091 1.455254,-4.98672 2.677492,-10.04549 3.620195,-15.15772 0.26243,-1.42287 1.824701,-13.47729 2.756765,-19.645 8.175794,2.387091 5.371466,1.6671 7.225372,2.151737 5.136155,1.343033 10.52452,1.608163 15.796271,2.019073 3.0048,0.2343 5.982481,0.21106 8.991871,0.16416 4.47424,-0.0697 8.957667,-0.28395 13.393307,-0.90697 2.20812,-0.31013 4.40728,-0.73246 6.56658,-1.294221 1.70892,-0.444493 2.80997,-0.694848 6.47355,-2.133779 0.40408,1.591471 4.56813,30.63042 10.1726,43.98245 2.21626,5.27997 8.90217,16.8751 11.00308,19.49227 -2.98751,1.13279 -15.00586,6.72693 -21.24661,10.48493 -7.66491,4.61574 -14.91135,10.2724 -20.893412,16.99551 -2.822893,3.17322 -5.038318,6.88856 -7.319246,10.46551 -0.889925,1.3952 -1.233294,1.5847 -1.790906,0.98322 z m 2.396706,-11.59935 c 1.590641,-8.4384 6.179614,-19.17578 13.341158,-31.21459 2.4159,-4.06118 7.00988,-11.03105 9.79772,-14.86532 1.72875,-2.37759 2.28323,-3.25413 2.28323,-3.6097 0,-0.26492 -0.0993,-0.50809 -0.22801,-0.55816 -0.12559,-0.0488 -1.23434,0.0966 -2.4643,0.32303 -7.54996,1.38971 -15.232813,1.85174 -21.20466,1.27519 -2.702734,-0.26091 -4.681597,-0.59027 -4.905225,-0.81654 -0.158334,-0.16035 0.453098,-4.07532 0.951047,-6.0891 2.082958,-8.42552 6.947505,-17.27863 13.162168,-23.95422 0.95731,-1.02802 1.70141,-1.90857 1.65427,-1.95632 -0.0476,-0.048 -0.63668,0.0914 -1.30944,0.30993 -7.886453,2.5597 -16.654696,2.81701 -22.967822,0.67415 -0.86218,-0.29282 -1.590641,-0.51 -1.619221,-0.48317 -0.02837,0.027 0.03442,0.89302 0.139559,1.92464 0.990058,9.70768 -3.561786,22.43371 -13.110851,36.65511 -1.436061,2.13885 -4.245605,5.96341 -5.877759,8.0017 -0.658369,0.82204 -0.939365,1.28535 -0.799806,1.31809 0.118282,0.0279 1.3255,-0.23577 2.682709,-0.58564 3.873864,-0.99864 7.1146,-1.61174 11.542112,-2.18279 3.38718,-0.43691 11.729235,-0.39718 14.628688,0.0697 1.885822,0.30359 4.49531,0.88922 4.647178,1.04323 0.03129,0.0317 -0.04444,0.37014 -0.16814,0.75232 -0.656074,2.02435 -1.499062,6.05003 -1.8877,9.01304 -0.747029,5.69489 -0.746402,14.86216 0.0012,21.62837 0.293931,2.66112 0.815036,6.07455 0.964608,6.31961 0.12746,0.20832 0.193798,-0.0574 0.747236,-2.99258 z"
       inkscape:connector-curvature="0"
       id="path4182"
       style="fill:#ffffff;stroke-width:0.20993327" />
  </g>
</svg>
