<?xml version="1.0" encoding="UTF-8" standalone="no"?>
<!-- Created with Inkscape (http://www.inkscape.org/) -->

<svg
   xmlns:dc="http://purl.org/dc/elements/1.1/"
   xmlns:cc="http://creativecommons.org/ns#"
   xmlns:rdf="http://www.w3.org/1999/02/22-rdf-syntax-ns#"
   xmlns:svg="http://www.w3.org/2000/svg"
   xmlns="http://www.w3.org/2000/svg"
   xmlns:sodipodi="http://sodipodi.sourceforge.net/DTD/sodipodi-0.dtd"
   xmlns:inkscape="http://www.inkscape.org/namespaces/inkscape"
   width="127.15134mm"
   height="128.65213mm"
   viewBox="0 0 127.15134 128.65213"
   version="1.1"
   id="svg8"
   inkscape:version="0.92.3 (2405546, 2018-03-11)"
   sodipodi:docname="poison_counter.svg">
  <defs
     id="defs2" />
  <sodipodi:namedview
     id="base"
     pagecolor="#ffffff"
     bordercolor="#666666"
     borderopacity="1.0"
     inkscape:pageopacity="0.0"
     inkscape:pageshadow="2"
     inkscape:zoom="1.4"
     inkscape:cx="350.57121"
     inkscape:cy="227.68653"
     inkscape:document-units="mm"
     inkscape:current-layer="layer1"
     showgrid="false"
     inkscape:window-width="2560"
     inkscape:window-height="1377"
     inkscape:window-x="1912"
     inkscape:window-y="-8"
     inkscape:window-maximized="1" />
  <metadata
     id="metadata5">
    <rdf:RDF>
      <cc:Work
         rdf:about="">
        <dc:format>image/svg+xml</dc:format>
        <dc:type
           rdf:resource="http://purl.org/dc/dcmitype/StillImage" />
        <dc:title></dc:title>
      </cc:Work>
    </rdf:RDF>
  </metadata>
  <g
     inkscape:label="Ebene 1"
     inkscape:groupmode="layer"
     id="layer1"
     transform="translate(-27.138615,-84.507264)">
    <path
       id="path4526"
       d="m 97.033542,165.86539 v -34.56757 c 8.770378,2.27249 15.148988,9.15823 15.148988,17.27872 0,8.13062 -6.37873,15.01614 -15.148988,17.28885 z M 69.23256,148.57654 c 0,-8.12049 6.378728,-15.00633 15.148989,-17.27872 v 34.56757 C 75.611173,163.59279 69.23256,156.70716 69.23256,148.57654 Z m 60.42602,0 c 0,-16.52003 -14.12506,-30.21991 -32.625038,-32.79853 V 91.817779 L 84.381549,102.68703 v 13.09098 c -18.48306,2.57862 -32.611559,16.2785 -32.611559,32.79853 0,16.53017 14.128499,30.23005 32.611559,32.80867 v 24.46367 l 12.651993,-10.86925 v -13.59442 c 18.499978,-2.57862 32.625038,-16.2785 32.625038,-32.80867 z"
       inkscape:connector-curvature="0"
       style="fill:#ffffff;stroke-width:0.1113585" />
  </g>
</svg>
